<svg width="131" height="29" viewBox="0 0 131 29" fill="none" xmlns="http://www.w3.org/2000/svg">
<path d="M17.712 7.2H20.28C20.824 7.2 21.2 7.288 21.408 7.464C21.632 7.64 21.752 8 21.768 8.544C21.864 10.976 21.912 13.592 21.912 16.392C21.912 19.192 21.856 21.24 21.744 22.536C21.712 22.904 21.568 23.24 21.312 23.544C21.072 23.848 20.752 24 20.352 24H16.344C15.784 24 15.168 23.8 14.496 23.4C10.784 21.208 8.448 19.872 7.488 19.392C7.296 19.312 7.136 19.344 7.008 19.488C6.896 19.616 6.84 19.864 6.84 20.232V22.896C6.84 23.2 6.728 23.44 6.504 23.616C6.168 23.888 5.304 24.024 3.912 24.024C3.528 24.024 3.152 24.016 2.784 24C2.416 23.968 2.112 23.8 1.872 23.496C1.648 23.192 1.528 22.864 1.512 22.512C1.464 20.592 1.44 18.184 1.44 15.288C1.44 12.376 1.448 10.48 1.464 9.6C1.48 8.72 1.584 8.104 1.776 7.752C1.968 7.384 2.336 7.2 2.88 7.2H5.52C6.064 7.2 6.624 7.352 7.2 7.656C12.16 10.232 15.056 11.728 15.888 12.144C16.16 12.272 16.376 12.288 16.536 12.192C16.696 12.096 16.776 11.92 16.776 11.664V8.304C16.776 7.984 16.856 7.72 17.016 7.512C17.192 7.304 17.424 7.2 17.712 7.2ZM36.1883 24.48C34.2523 24.48 32.5003 24.232 30.9323 23.736C29.3643 23.224 28.0923 22.544 27.1163 21.696C26.1403 20.848 25.3963 19.904 24.8843 18.864C24.3723 17.808 24.1163 16.712 24.1163 15.576C24.1163 14.44 24.3723 13.352 24.8843 12.312C25.4123 11.256 26.1563 10.304 27.1163 9.456C28.0923 8.608 29.3643 7.928 30.9323 7.416C32.5003 6.904 34.2203 6.648 36.0923 6.648C37.9643 6.648 39.6203 6.88 41.0603 7.344C42.5003 7.808 43.6603 8.44 44.5403 9.24C46.3323 10.872 47.2283 12.808 47.2283 15.048C47.2283 16.184 46.9803 17.296 46.4843 18.384C46.0043 19.472 45.3083 20.464 44.3963 21.36C43.5003 22.24 42.3403 22.968 40.9163 23.544C39.4923 24.104 37.9163 24.416 36.1883 24.48ZM40.9403 15.168C40.9403 14.4 40.6683 13.736 40.1243 13.176C39.5803 12.6 38.7483 12.312 37.6283 12.312C36.5243 12.312 35.6443 12.608 34.9883 13.2C34.3323 13.792 34.0043 14.512 34.0043 15.36C34.0043 16.208 34.3483 16.888 35.0363 17.4C35.7243 17.912 36.5483 18.168 37.5083 18.168C38.4843 18.168 39.3003 17.856 39.9563 17.232C40.6123 16.608 40.9403 15.92 40.9403 15.168ZM51.4995 7.2H57.9315C58.6035 7.2 59.0435 7.368 59.2515 7.704C59.4755 8.04 59.6195 8.736 59.6835 9.792C59.7635 10.832 59.8035 12.864 59.8035 15.888C59.8035 18.896 59.7395 21.104 59.6115 22.512C59.5635 22.88 59.3955 23.208 59.1075 23.496C58.8355 23.784 58.4675 23.944 58.0035 23.976C57.0915 24.04 56.0355 24.072 54.8355 24.072C53.6355 24.072 52.4995 24.04 51.4275 23.976C50.9635 23.944 50.5875 23.784 50.2995 23.496C50.0275 23.208 49.8675 22.88 49.8195 22.512C49.6915 21.104 49.6275 18.896 49.6275 15.888C49.6275 12.864 49.6595 10.832 49.7235 9.792C49.8035 8.736 49.9475 8.04 50.1555 7.704C50.3795 7.368 50.8275 7.2 51.4995 7.2ZM70.1222 24.48C68.7462 24.48 67.4582 24.328 66.2582 24.024C65.0742 23.72 64.2342 23.416 63.7382 23.112C63.2582 22.808 62.9382 22.592 62.7782 22.464C62.3622 22.128 62.1542 21.664 62.1542 21.072C62.1542 20.608 62.2102 20.168 62.3222 19.752C62.5302 18.968 62.9062 18.576 63.4502 18.576C63.6262 18.592 64.1862 18.776 65.1302 19.128C66.0902 19.48 66.8422 19.656 67.3862 19.656C68.2022 19.656 68.6102 19.336 68.6102 18.696C68.6102 18.312 68.4102 17.96 68.0102 17.64C67.6102 17.304 67.1222 16.984 66.5462 16.68C65.9862 16.376 65.4182 16.032 64.8422 15.648C64.2662 15.248 63.7782 14.704 63.3782 14.016C62.9782 13.312 62.7782 12.496 62.7782 11.568C62.7782 10.032 63.5302 8.832 65.0342 7.968C66.5382 7.088 68.4822 6.648 70.8662 6.648C73.2502 6.648 75.1382 6.896 76.5302 7.392C77.9382 7.872 78.6422 8.544 78.6422 9.408C78.6422 10.032 78.4982 10.584 78.2102 11.064C77.9222 11.528 77.6182 11.76 77.2982 11.76C77.1862 11.76 76.8102 11.64 76.1702 11.4C75.5462 11.144 74.9782 11.016 74.4662 11.016C73.4582 11.016 72.9542 11.408 72.9542 12.192C72.9542 12.576 73.1942 12.928 73.6742 13.248C74.1542 13.568 74.7302 13.88 75.4022 14.184C76.0902 14.472 76.7782 14.8 77.4662 15.168C78.1542 15.536 78.7382 16.04 79.2182 16.68C79.6982 17.32 79.9382 18.096 79.9382 19.008C79.9382 19.92 79.6422 20.752 79.0502 21.504C78.4742 22.256 77.7062 22.84 76.7462 23.256C74.8422 24.072 72.6342 24.48 70.1222 24.48ZM83.8644 24C83.4164 24 83.0324 23.856 82.7124 23.568C82.4084 23.264 82.2084 22.776 82.1124 22.104C82.0324 21.416 81.9924 19.376 81.9924 15.984C81.9924 12.576 82.0484 10.352 82.1604 9.312C82.2884 7.968 82.8564 7.28 83.8644 7.248C85.0164 7.216 89.7924 7.2 98.1924 7.2C99.1364 7.2 99.6084 7.8 99.6084 9C99.6084 9.944 99.1924 10.416 98.3604 10.416H93.0804C92.7444 10.416 92.4724 10.528 92.2644 10.752C92.0724 10.976 91.9764 11.264 91.9764 11.616V13.344C91.9764 13.824 92.1924 14.064 92.6244 14.064H96.9924C97.2484 14.064 97.4404 14.088 97.5684 14.136C97.7124 14.184 97.8404 14.328 97.9524 14.568C98.0644 14.792 98.1204 15.168 98.1204 15.696C98.1204 16.224 98.0244 16.576 97.8324 16.752C97.6564 16.928 97.3604 17.016 96.9444 17.016H93.0324C92.6324 17.016 92.3524 17.12 92.1924 17.328C92.0484 17.52 91.9764 17.824 91.9764 18.24V19.416C91.9764 20.104 92.3044 20.448 92.9604 20.448H98.9364C99.2244 20.448 99.4804 20.536 99.7044 20.712C99.9284 20.872 100.04 21.24 100.04 21.816C100.04 22.376 99.9044 22.88 99.6324 23.328C99.3604 23.776 99.0404 24 98.6724 24H83.8644Z" fill="#001270"/>
<rect x="106" y="10" width="7" height="14" fill="#125774"/>
<rect x="124" y="15" width="7" height="9" fill="#125774"/>
<rect x="115" y="7" width="7" height="17" fill="#125774"/>
</svg>
